<mxfile host="app.diagrams.net" modified="2023-05-31T08:48:32.119Z" agent="Mozilla/5.0 (Windows NT 10.0; Win64; x64) AppleWebKit/537.36 (KHTML, like Gecko) Chrome/113.0.0.0 Safari/537.36 Edg/113.0.1774.57" etag="AaLnCECpf50uLSvEd3by" version="21.2.9" type="github">
  <diagram name="第 1 页" id="XfOFILs00ZGRHzHzvPaA">
    <mxGraphModel dx="1430" dy="797" grid="1" gridSize="10" guides="1" tooltips="1" connect="1" arrows="1" fold="1" page="1" pageScale="1" pageWidth="1169" pageHeight="827" math="0" shadow="0">
      <root>
        <mxCell id="0" />
        <mxCell id="1" parent="0" />
        <mxCell id="iP6cr7Y66vlfGGgkkz_Z-12" style="edgeStyle=orthogonalEdgeStyle;rounded=0;orthogonalLoop=1;jettySize=auto;html=1;" edge="1" parent="1" source="iP6cr7Y66vlfGGgkkz_Z-1" target="iP6cr7Y66vlfGGgkkz_Z-10">
          <mxGeometry relative="1" as="geometry" />
        </mxCell>
        <mxCell id="iP6cr7Y66vlfGGgkkz_Z-1" value="hard sample&lt;br&gt;Encoder" style="rounded=0;whiteSpace=wrap;html=1;" vertex="1" parent="1">
          <mxGeometry x="280" y="370" width="120" height="60" as="geometry" />
        </mxCell>
        <mxCell id="iP6cr7Y66vlfGGgkkz_Z-7" style="edgeStyle=orthogonalEdgeStyle;rounded=0;orthogonalLoop=1;jettySize=auto;html=1;entryX=0;entryY=0.5;entryDx=0;entryDy=0;" edge="1" parent="1" source="iP6cr7Y66vlfGGgkkz_Z-4" target="iP6cr7Y66vlfGGgkkz_Z-6">
          <mxGeometry relative="1" as="geometry" />
        </mxCell>
        <mxCell id="iP6cr7Y66vlfGGgkkz_Z-4" value="pc&lt;br&gt;Encoder" style="shape=trapezoid;perimeter=trapezoidPerimeter;whiteSpace=wrap;html=1;fixedSize=1;rotation=90;size=35;horizontal=0;" vertex="1" parent="1">
          <mxGeometry x="285" y="505" width="120" height="120" as="geometry" />
        </mxCell>
        <mxCell id="iP6cr7Y66vlfGGgkkz_Z-9" style="edgeStyle=orthogonalEdgeStyle;rounded=0;orthogonalLoop=1;jettySize=auto;html=1;entryX=0.5;entryY=0;entryDx=0;entryDy=0;" edge="1" parent="1" source="iP6cr7Y66vlfGGgkkz_Z-6" target="iP6cr7Y66vlfGGgkkz_Z-8">
          <mxGeometry relative="1" as="geometry" />
        </mxCell>
        <mxCell id="iP6cr7Y66vlfGGgkkz_Z-11" style="edgeStyle=orthogonalEdgeStyle;rounded=0;orthogonalLoop=1;jettySize=auto;html=1;entryX=0;entryY=0.75;entryDx=0;entryDy=0;" edge="1" parent="1" source="iP6cr7Y66vlfGGgkkz_Z-6" target="iP6cr7Y66vlfGGgkkz_Z-10">
          <mxGeometry relative="1" as="geometry">
            <mxPoint x="470" y="410" as="targetPoint" />
            <Array as="points">
              <mxPoint x="470" y="415" />
            </Array>
          </mxGeometry>
        </mxCell>
        <mxCell id="iP6cr7Y66vlfGGgkkz_Z-6" value="" style="rounded=0;whiteSpace=wrap;html=1;" vertex="1" parent="1">
          <mxGeometry x="460" y="515" width="20" height="100" as="geometry" />
        </mxCell>
        <mxCell id="iP6cr7Y66vlfGGgkkz_Z-17" style="edgeStyle=orthogonalEdgeStyle;rounded=0;orthogonalLoop=1;jettySize=auto;html=1;" edge="1" parent="1" source="iP6cr7Y66vlfGGgkkz_Z-8" target="iP6cr7Y66vlfGGgkkz_Z-16">
          <mxGeometry relative="1" as="geometry" />
        </mxCell>
        <mxCell id="iP6cr7Y66vlfGGgkkz_Z-8" value="pc&lt;br&gt;Decoder" style="shape=trapezoid;perimeter=trapezoidPerimeter;whiteSpace=wrap;html=1;fixedSize=1;rotation=90;size=20;verticalAlign=middle;horizontal=0;labelPosition=center;verticalLabelPosition=middle;align=center;direction=west;" vertex="1" parent="1">
          <mxGeometry x="540" y="505" width="110" height="120" as="geometry" />
        </mxCell>
        <mxCell id="iP6cr7Y66vlfGGgkkz_Z-14" style="edgeStyle=orthogonalEdgeStyle;rounded=0;orthogonalLoop=1;jettySize=auto;html=1;exitX=1;exitY=0.5;exitDx=0;exitDy=0;entryX=0;entryY=0.5;entryDx=0;entryDy=0;" edge="1" parent="1" source="iP6cr7Y66vlfGGgkkz_Z-10" target="iP6cr7Y66vlfGGgkkz_Z-13">
          <mxGeometry relative="1" as="geometry" />
        </mxCell>
        <mxCell id="iP6cr7Y66vlfGGgkkz_Z-10" value="mask&lt;br&gt;decoder" style="rounded=0;whiteSpace=wrap;html=1;" vertex="1" parent="1">
          <mxGeometry x="530" y="370" width="120" height="60" as="geometry" />
        </mxCell>
        <mxCell id="iP6cr7Y66vlfGGgkkz_Z-18" style="edgeStyle=orthogonalEdgeStyle;rounded=0;orthogonalLoop=1;jettySize=auto;html=1;" edge="1" parent="1" source="iP6cr7Y66vlfGGgkkz_Z-13" target="iP6cr7Y66vlfGGgkkz_Z-16">
          <mxGeometry relative="1" as="geometry" />
        </mxCell>
        <mxCell id="iP6cr7Y66vlfGGgkkz_Z-13" value="MLP" style="rounded=0;whiteSpace=wrap;html=1;" vertex="1" parent="1">
          <mxGeometry x="730" y="385" width="70" height="30" as="geometry" />
        </mxCell>
        <mxCell id="iP6cr7Y66vlfGGgkkz_Z-16" value="mask" style="rounded=0;whiteSpace=wrap;html=1;" vertex="1" parent="1">
          <mxGeometry x="742.5" y="515" width="45" height="100" as="geometry" />
        </mxCell>
      </root>
    </mxGraphModel>
  </diagram>
</mxfile>
